<?xml version="1.0" standalone="no"?>
<!DOCTYPE svg PUBLIC "-//W3C//DTD SVG 20010904//EN"
 "http://www.w3.org/TR/2001/REC-SVG-20010904/DTD/svg10.dtd">
<svg version="1.0" xmlns="http://www.w3.org/2000/svg"
 width="500.000000pt" height="500.000000pt" viewBox="0 0 500.000000 500.000000"
 preserveAspectRatio="xMidYMid meet">
<metadata>
Created by potrace 1.11, written by Peter Selinger 2001-2013
</metadata>
<g transform="translate(0.000000,500.000000) scale(0.100000,-0.100000)"
fill="#000000" stroke="none">
<path d="M2805 4165 c-39 -7 -113 -30 -165 -53 -289 -122 -692 -298 -744 -324
-188 -95 -299 -210 -500 -515 -48 -73 -89 -133 -91 -133 -2 0 -16 5 -31 10
-29 12 -111 16 -120 7 -3 -3 -8 -37 -11 -75 -5 -64 -3 -71 17 -85 l23 -16 -24
-29 c-46 -55 -152 -129 -357 -249 -277 -162 -648 -419 -739 -513 -51 -52 -58
-86 -58 -275 0 -232 10 -346 34 -392 67 -130 516 -432 841 -566 229 -94 377
-122 700 -132 200 -6 289 17 427 107 l77 50 19 -23 c80 -101 137 -131 257
-137 99 -5 178 17 265 73 162 103 259 302 242 494 -4 36 -9 76 -13 88 -5 19
-1 23 38 33 23 6 48 12 53 14 6 2 46 30 90 62 262 190 353 253 565 394 129 86
316 206 415 265 175 105 242 149 258 170 4 7 10 6 15 -1 60 -92 122 -129 212
-129 80 1 130 25 190 92 97 109 147 311 109 446 -12 44 -11 45 20 50 30 5 117
80 137 118 9 19 15 56 15 95 0 82 -65 402 -96 470 -30 68 -83 99 -200 118
-297 47 -509 90 -582 118 -29 11 -103 53 -165 95 -61 41 -141 90 -177 108
-102 52 -384 119 -666 159 -169 24 -204 25 -280 11z"/>
</g>
</svg>
